<svg width="21" height="20" viewBox="0 0 21 20" fill="none" xmlns="http://www.w3.org/2000/svg">
<g clip-path="url(#clip0_303_274)">
<path d="M16.3355 14.1646C14.9604 14.1646 13.8418 15.2833 13.8418 16.6584C13.8418 18.0334 14.9605 19.1521 16.3355 19.1521C17.7106 19.1521 18.8293 18.0334 18.8293 16.6584C18.8293 15.2833 17.7106 14.1646 16.3355 14.1646ZM16.3355 17.6559C15.7854 17.6559 15.338 17.2085 15.338 16.6584C15.338 16.1082 15.7854 15.6609 16.3355 15.6609C16.8856 15.6609 17.333 16.1082 17.333 16.6584C17.333 17.2085 16.8856 17.6559 16.3355 17.6559ZM20.341 4.52638C20.2711 4.43693 20.1817 4.36459 20.0796 4.31486C19.9776 4.26512 19.8655 4.2393 19.752 4.23934H5.118L4.44467 1.42214C4.40554 1.25857 4.31246 1.11295 4.18044 1.00876C4.04842 0.904573 3.88515 0.847885 3.71697 0.847839H1.24813C0.834924 0.8478 0.5 1.18272 0.5 1.59593C0.5 2.00914 0.834924 2.34406 1.24813 2.34406H3.12646L5.55788 12.5177C5.59695 12.6813 5.69001 12.8269 5.82205 12.9311C5.95408 13.0353 6.11738 13.092 6.28558 13.092H17.9315C18.2755 13.092 18.5752 12.8576 18.6577 12.5239L20.4782 5.16724C20.5054 5.05701 20.5072 4.94203 20.4834 4.83101C20.4596 4.71999 20.4109 4.61582 20.341 4.52638ZM17.3462 11.5958H6.87609L5.47558 5.7356H18.7961L17.3462 11.5958ZM7.28309 14.1646C5.908 14.1646 4.78932 15.2833 4.78932 16.6584C4.78932 18.0334 5.90804 19.1521 7.28309 19.1521C8.65813 19.1521 9.77685 18.0334 9.77685 16.6584C9.77685 15.2833 8.65813 14.1646 7.28309 14.1646ZM7.28309 17.6559C6.73297 17.6559 6.28558 17.2085 6.28558 16.6584C6.28558 16.1082 6.73297 15.6609 7.28309 15.6609C7.83321 15.6609 8.28059 16.1082 8.28059 16.6584C8.28059 17.2085 7.83321 17.6559 7.28309 17.6559Z" fill="white"/>
</g>
<defs>
<clipPath id="clip0_303_274">
<rect width="20" height="20" fill="white" transform="translate(0.5)"/>
</clipPath>
</defs>
</svg>
