<svg width="20" height="21" viewBox="0 0 20 21" fill="none" xmlns="http://www.w3.org/2000/svg">
<path d="M15.8355 14.6646C14.4604 14.6646 13.3418 15.7833 13.3418 17.1584C13.3418 18.5334 14.4605 19.6521 15.8355 19.6521C17.2106 19.6521 18.3293 18.5334 18.3293 17.1584C18.3293 15.7833 17.2106 14.6646 15.8355 14.6646ZM15.8355 18.1559C15.2854 18.1559 14.838 17.7085 14.838 17.1584C14.838 16.6083 15.2854 16.1609 15.8355 16.1609C16.3856 16.1609 16.833 16.6083 16.833 17.1584C16.833 17.7085 16.3856 18.1559 15.8355 18.1559ZM19.841 5.02639C19.7711 4.93694 19.6817 4.86461 19.5796 4.81487C19.4776 4.76514 19.3655 4.73931 19.252 4.73936H4.618L3.94467 1.92215C3.90554 1.75859 3.81246 1.61297 3.68044 1.50878C3.54842 1.40459 3.38515 1.3479 3.21697 1.34785H0.748129C0.334924 1.34782 0 1.68274 0 2.09594C0 2.50915 0.334924 2.84407 0.748129 2.84407H2.62646L5.05788 13.0177C5.09695 13.1813 5.19001 13.3269 5.32205 13.4311C5.45408 13.5354 5.61738 13.592 5.78558 13.592H17.4315C17.7755 13.592 18.0752 13.3576 18.1577 13.0239L19.9782 5.66725C20.0054 5.55702 20.0072 5.44205 19.9834 5.33103C19.9596 5.22001 19.9109 5.11584 19.841 5.02639ZM16.8462 12.0958H6.37609L4.97558 6.23562H18.2961L16.8462 12.0958ZM6.78309 14.6646C5.408 14.6646 4.28932 15.7833 4.28932 17.1584C4.28932 18.5334 5.40804 19.6521 6.78309 19.6521C8.15813 19.6521 9.27685 18.5334 9.27685 17.1584C9.27685 15.7833 8.15813 14.6646 6.78309 14.6646ZM6.78309 18.1559C6.23297 18.1559 5.78558 17.7085 5.78558 17.1584C5.78558 16.6083 6.23297 16.1609 6.78309 16.1609C7.33321 16.1609 7.78059 16.6083 7.78059 17.1584C7.78059 17.7085 7.33321 18.1559 6.78309 18.1559Z" fill="#F09E2A"/>
</svg>
