<svg width="85" height="85" viewBox="0 0 85 85" fill="none" xmlns="http://www.w3.org/2000/svg">
<path d="M81.7547 15.7214L29.6963 4.70435C27.4938 4.23837 25.3108 5.65936 24.8448 7.86187L23.8557 14.2177L83.9224 26.9288L84.9114 20.5729C85.3774 18.3712 83.9572 16.1875 81.7547 15.7214ZM59.8628 28.2767C59.2547 26.087 56.9664 24.7927 54.7773 25.3998L44.8948 28.1433L21.5971 23.2127L19.0349 35.319L3.02589 39.7624C0.836982 40.3696 -0.457332 42.6579 0.149755 44.847L9.17176 77.358C9.77982 79.5469 12.0683 80.8421 14.2572 80.2342L66.0087 65.8725C68.1976 65.2645 69.4919 62.977 68.8848 60.7871L67.3362 55.2059L73.1402 56.433C75.3428 56.8998 77.5258 55.4789 77.9918 53.2763L81.6639 35.9239L60.7574 31.4998L59.8628 28.2767ZM65.8393 44.8002L67.1192 38.7512C67.3114 37.8455 68.2095 37.2614 69.1151 37.4526L75.164 38.7333C76.0705 38.9255 76.6547 39.8226 76.4634 40.7292L75.1836 46.7781C74.9914 47.6838 74.0934 48.2688 73.1877 48.0767L67.1388 46.7968C66.2314 46.6039 65.6471 45.7059 65.8393 44.8002ZM3.92645 43.0067L18.2481 39.0336L52.0398 29.6562L55.6761 28.6459C55.7425 28.628 55.8087 28.6195 55.8735 28.6195C56.1651 28.6195 56.5139 28.8109 56.6158 29.1774L57.0428 30.7149L58.3804 35.535L5.15951 50.304L3.39492 43.9472C3.28436 43.5484 3.52769 43.1172 3.92645 43.0067ZM65.6395 61.6867C65.7075 61.9333 65.6362 62.1374 65.5638 62.265C65.4924 62.3925 65.3546 62.5593 65.108 62.6272L13.3575 76.9889C13.2932 77.0067 13.2268 77.0158 13.1601 77.0161C12.8684 77.0161 12.5197 76.8239 12.4178 76.4573L7.1555 57.4941L60.3764 42.7243L63.6224 54.42L65.6395 61.6867Z" fill="#F09E2A"/>
<path d="M21.7195 62.9843C21.4711 62.0914 20.539 61.5642 19.6461 61.8117L13.6023 63.4895C12.7102 63.737 12.1822 64.6699 12.4305 65.5628L14.1075 71.6058C14.3558 72.4987 15.2879 73.0259 16.1808 72.7776L22.2246 71.1006C23.1175 70.8531 23.6448 69.9202 23.3973 69.0273L21.7195 62.9843Z" fill="#F09E2A"/>
</svg>
