<svg width="68" height="68" viewBox="0 0 68 68" fill="none" xmlns="http://www.w3.org/2000/svg">
<path d="M48.9319 14.1921L42.9167 3.88731C42.7752 3.64444 42.5869 3.43207 42.3627 3.26249C42.1385 3.09291 41.8829 2.9695 41.6107 2.89941C41.3384 2.82931 41.055 2.81392 40.7768 2.85413C40.4986 2.89433 40.2311 2.98934 39.9899 3.13364L21.6016 14.1666L48.9319 14.1921Z" fill="#F09E2A"/>
<path d="M8.5 17C6.94167 17 5.66667 15.725 5.66667 14.1666C5.66667 12.6083 6.94167 11.3333 8.5 11.3333H18.0483L27.5117 5.66663H8.5C4.30667 5.66663 0.821667 8.72663 0.141667 12.75C0.085 12.9766 0 13.2033 0 13.4583V56.6666C0 61.3416 3.825 65.1666 8.5 65.1666H56.6667C59.7833 65.1666 62.3333 62.6166 62.3333 59.5V53.8333H55.25C48.2233 53.8333 42.5 48.11 42.5 41.0833C42.5 34.0566 48.2233 28.3333 55.25 28.3333H62.3333V22.6666C62.3333 19.55 59.7833 17 56.6667 17H8.5ZM53.8333 11.3333C53.8333 8.47163 51.7083 6.09163 48.9317 5.72329L53.8333 14.1666V11.3333Z" fill="#F09E2A"/>
<path d="M65.875 32.5834H55.25C50.5637 32.5834 46.75 36.397 46.75 41.0834C46.75 45.7697 50.5637 49.5834 55.25 49.5834H65.875C66.4386 49.5834 66.9791 49.3595 67.3776 48.961C67.7761 48.5625 68 48.022 68 47.4584V34.7084C68 34.1448 67.7761 33.6043 67.3776 33.2058C66.9791 32.8073 66.4386 32.5834 65.875 32.5834ZM55.25 43.9167C54.4986 43.9167 53.7779 43.6182 53.2465 43.0868C52.7152 42.5555 52.4167 41.8348 52.4167 41.0834C52.4167 40.3319 52.7152 39.6113 53.2465 39.0799C53.7779 38.5486 54.4986 38.25 55.25 38.25C56.0014 38.25 56.7221 38.5486 57.2535 39.0799C57.7848 39.6113 58.0833 40.3319 58.0833 41.0834C58.0833 41.8348 57.7848 42.5555 57.2535 43.0868C56.7221 43.6182 56.0014 43.9167 55.25 43.9167Z" fill="#F09E2A"/>
</svg>
