<svg width="19" height="19" viewBox="0 0 19 19" fill="none" xmlns="http://www.w3.org/2000/svg">
<path d="M14.8488 0.00593567H6.72969C5.92393 0.00691771 5.15145 0.32744 4.58169 0.897198C4.01193 1.46696 3.69141 2.23943 3.69043 3.04519V4.9207C3.69043 5.15691 3.78426 5.38344 3.95129 5.55047C4.11831 5.71749 4.34485 5.81133 4.58105 5.81133C4.81726 5.81133 5.0438 5.71749 5.21082 5.55047C5.37785 5.38344 5.47168 5.15691 5.47168 4.9207V3.04519C5.47207 2.71167 5.60474 2.39192 5.84058 2.15608C6.07641 1.92024 6.39616 1.78758 6.72969 1.78719H14.8488C15.1821 1.78787 15.5016 1.92068 15.7371 2.1565C15.9726 2.39231 16.1051 2.7119 16.1054 3.04519V15.9548C16.1051 16.2883 15.9725 16.608 15.7367 16.8439C15.5009 17.0797 15.1812 17.2124 14.8477 17.2128H6.72969C6.39616 17.2124 6.07641 17.0798 5.84058 16.8439C5.60474 16.6081 5.47207 16.2883 5.47168 15.9548V13.785C5.47168 13.5488 5.37785 13.3223 5.21082 13.1553C5.0438 12.9882 4.81726 12.8944 4.58105 12.8944C4.34485 12.8944 4.11831 12.9882 3.95129 13.1553C3.78426 13.3223 3.69043 13.5488 3.69043 13.785V15.9548C3.69141 16.7606 4.01193 17.533 4.58169 18.1028C5.15145 18.6726 5.92393 18.9931 6.72969 18.9941H14.8488C15.6544 18.9927 16.4264 18.672 16.9959 18.1023C17.5653 17.5326 17.8856 16.7603 17.8866 15.9548V3.04519C17.8856 2.23969 17.5653 1.46744 16.9959 0.897722C16.4264 0.328006 15.6544 0.00731032 14.8488 0.00593567Z" fill="#F09E2A"/>
<path d="M13.5316 8.8517L10.3624 5.68442C10.1975 5.51948 9.97452 5.42579 9.7413 5.4235C9.50808 5.42122 9.28327 5.5105 9.11518 5.67217C8.75522 6.0184 8.76375 6.60473 9.11703 6.95801L10.7673 8.60938H2.00391C1.7677 8.60938 1.54116 8.70321 1.37414 8.87024C1.20711 9.03726 1.11328 9.2638 1.11328 9.5C1.11328 9.73621 1.20711 9.96275 1.37414 10.1298C1.54116 10.2968 1.7677 10.3906 2.00391 10.3906H10.7677L9.10145 12.0568C8.93438 12.2239 8.8405 12.4504 8.84047 12.6866C8.84043 12.9229 8.93424 13.1494 9.10126 13.3165C9.26828 13.4836 9.49483 13.5775 9.73106 13.5775C9.9673 13.5775 10.1939 13.4837 10.3609 13.3167L13.5316 10.1472C13.6167 10.0622 13.6843 9.96123 13.7304 9.85008C13.7765 9.73893 13.8003 9.61978 13.8003 9.49945C13.8003 9.37912 13.7765 9.25997 13.7304 9.14882C13.6843 9.03767 13.6167 8.9367 13.5316 8.8517Z" fill="#F09E2A"/>
</svg>
