<svg width="22" height="23" viewBox="0 0 22 23" fill="none" xmlns="http://www.w3.org/2000/svg">
<mask id="mask0_671_6240" style="mask-type:alpha" maskUnits="userSpaceOnUse" x="0" y="0" width="22" height="23">
<rect y="0.5" width="22" height="22" fill="#D9D9D9"/>
</mask>
<g mask="url(#mask0_671_6240)">
<path d="M11 19.1329L9.98825 18.2233C8.46872 16.8448 7.21212 15.6602 6.21846 14.6696C5.22479 13.6788 4.43737 12.7971 3.85621 12.0243C3.27504 11.2517 2.86903 10.5469 2.63819 9.90981C2.40719 9.27288 2.29169 8.62655 2.29169 7.97083C2.29169 6.66993 2.73031 5.58077 3.60756 4.70337C4.48496 3.82612 5.57412 3.3875 6.87502 3.3875C7.67527 3.3875 8.43152 3.57465 9.14377 3.94896C9.85602 4.32326 10.4748 4.86005 11 5.55931C11.5253 4.86005 12.144 4.32326 12.8563 3.94896C13.5685 3.57465 14.3248 3.3875 15.125 3.3875C16.4259 3.3875 17.5151 3.82612 18.3925 4.70337C19.2697 5.58077 19.7084 6.66993 19.7084 7.97083C19.7084 8.62655 19.5929 9.27288 19.3619 9.90981C19.131 10.5469 18.725 11.2517 18.1438 12.0243C17.5627 12.7971 16.7767 13.6788 15.7859 14.6696C14.7953 15.6602 13.5373 16.8448 12.0118 18.2233L11 19.1329ZM11 17.275C12.4667 15.9553 13.6736 14.8241 14.6209 13.8815C15.5681 12.939 16.3167 12.1202 16.8667 11.4251C17.4167 10.7299 17.7986 10.1126 18.0125 9.57316C18.2264 9.03386 18.3334 8.49975 18.3334 7.97083C18.3334 7.05416 18.0278 6.29027 17.4167 5.67916C16.8056 5.06805 16.0417 4.7625 15.125 4.7625C14.4012 4.7625 13.7321 4.96783 13.118 5.3785C12.504 5.78932 12.0177 6.36078 11.6593 7.09289H10.3407C9.97633 6.35482 9.48859 5.78191 8.87748 5.37414C8.26637 4.96638 7.59888 4.7625 6.87502 4.7625C5.96416 4.7625 5.20172 5.06805 4.58771 5.67916C3.97369 6.29027 3.66669 7.05416 3.66669 7.97083C3.66669 8.49975 3.77363 9.03386 3.98752 9.57316C4.20141 10.1126 4.58335 10.7299 5.13335 11.4251C5.68335 12.1202 6.43196 12.9376 7.37919 13.8771C8.32641 14.8167 9.53335 15.9493 11 17.275Z" fill="#F09E2A"/>
</g>
</svg>
