<svg width="42" height="42" viewBox="0 0 42 42" fill="none" xmlns="http://www.w3.org/2000/svg">
<path d="M35.1796 25.2168H21.034C20.6597 24.1286 19.9551 23.1844 19.0185 22.5158C18.0819 21.8472 16.96 21.4876 15.8092 21.4872C13.3732 21.4872 11.3572 23.0496 10.6012 25.2168H8.11478C7.19078 25.2168 6.43478 25.9728 6.43478 26.8968C6.43478 27.8208 7.19078 28.5768 8.11478 28.5768H10.5172C11.1892 30.8952 13.2892 32.592 15.826 32.592C18.3628 32.592 20.446 30.8952 21.118 28.5768H35.1796C36.1036 28.5768 36.8596 27.8208 36.8596 26.8968C36.8596 25.9728 36.1036 25.2168 35.1796 25.2168ZM15.826 29.232C14.6164 29.232 13.642 28.2576 13.642 27.0312C13.642 25.8048 14.6164 24.8472 15.826 24.8472C17.0356 24.8472 18.01 25.8216 18.01 27.048C18.01 28.2744 17.0356 29.232 15.826 29.232ZM8.01398 15.1536H20.1268C20.8492 17.5896 23.0668 19.3704 25.738 19.3704C28.4092 19.3704 30.61 17.5896 31.3492 15.1536H35.0788C36.0028 15.1536 36.7588 14.3976 36.7588 13.4736C36.7588 12.5496 36.0028 11.7936 35.0788 11.7936H31.3492C30.6268 9.37443 28.3924 7.59363 25.738 7.59363C23.0836 7.59363 20.866 9.37443 20.1436 11.7936H8.01398C7.08998 11.7936 6.33398 12.5496 6.33398 13.4736C6.33398 14.3976 7.08998 15.1536 8.01398 15.1536ZM25.738 10.9536C27.1324 10.9536 28.258 12.0792 28.258 13.4904C28.258 14.9016 27.1324 16.0104 25.738 16.0104C24.3436 16.0104 23.218 14.8848 23.218 13.4736C23.218 12.0624 24.3436 10.9536 25.738 10.9536Z" fill="#F09E2A"/>
</svg>
