<svg width="23" height="23" viewBox="0 0 23 23" fill="none" xmlns="http://www.w3.org/2000/svg">
<g clip-path="url(#clip0_3004_2386)">
<rect width="23" height="23" rx="11.5" fill="#F09E2A"/>
<mask id="mask0_3004_2386" style="mask-type:alpha" maskUnits="userSpaceOnUse" x="5" y="5" width="19" height="19">
<rect x="5" y="5" width="18.5" height="18.5" fill="#D9D9D9"/>
</mask>
<g mask="url(#mask0_3004_2386)">
<path d="M11.3019 11.3015C11.6382 11.3015 11.926 11.1818 12.1655 10.9423C12.4049 10.7029 12.5246 10.415 12.5246 10.0788C12.5246 9.74255 12.4049 9.45471 12.1655 9.21526C11.926 8.97581 11.6382 8.85609 11.3019 8.85609C10.9657 8.85609 10.6779 8.97581 10.4384 9.21526C10.199 9.45471 10.0792 9.74255 10.0792 10.0788C10.0792 10.415 10.199 10.7029 10.4384 10.9423C10.6779 11.1818 10.9657 11.3015 11.3019 11.3015ZM11.3019 17.415C9.66148 16.0191 8.43623 14.7225 7.62619 13.5253C6.81615 12.3281 6.41113 11.22 6.41113 10.2011C6.41113 8.67269 6.90276 7.45508 7.88602 6.54824C8.86927 5.64141 10.0079 5.18799 11.3019 5.18799C12.596 5.18799 13.7346 5.64141 14.7179 6.54824C15.7011 7.45508 16.1927 8.67269 16.1927 10.2011C16.1927 11.22 15.7877 12.3281 14.9777 13.5253C14.1676 14.7225 12.9424 16.0191 11.3019 17.415Z" fill="white"/>
</g>
</g>
<defs>
<clipPath id="clip0_3004_2386">
<rect width="23" height="23" rx="11.5" fill="white"/>
</clipPath>
</defs>
</svg>
