<svg width="25" height="25" viewBox="0 0 25 25" fill="none" xmlns="http://www.w3.org/2000/svg">
<mask id="mask0_671_6225" style="mask-type:alpha" maskUnits="userSpaceOnUse" x="0" y="0" width="25" height="25">
<rect width="25" height="25" fill="#D9D9D9"/>
</mask>
<g mask="url(#mask0_671_6225)">
<path d="M4.16667 20.8333C3.59375 20.8333 3.1033 20.6293 2.69531 20.2214C2.28733 19.8134 2.08333 19.3229 2.08333 18.75V6.25001C2.08333 5.67709 2.28733 5.18664 2.69531 4.77865C3.1033 4.37066 3.59375 4.16667 4.16667 4.16667H20.8333C21.4062 4.16667 21.8967 4.37066 22.3047 4.77865C22.7127 5.18664 22.9167 5.67709 22.9167 6.25001V18.75C22.9167 19.3229 22.7127 19.8134 22.3047 20.2214C21.8967 20.6293 21.4062 20.8333 20.8333 20.8333H4.16667ZM12.5 13.5417L20.8333 8.33334V6.25001L12.5 11.4583L4.16667 6.25001V8.33334L12.5 13.5417Z" fill="#F09E2A"/>
</g>
</svg>
