<svg width="19" height="20" viewBox="0 0 19 20" fill="none" xmlns="http://www.w3.org/2000/svg">
<mask id="mask0_303_238" style="mask-type:alpha" maskUnits="userSpaceOnUse" x="0" y="0" width="19" height="20">
<rect y="0.5" width="19" height="19" fill="#D9D9D9"/>
</mask>
<g mask="url(#mask0_303_238)">
<path d="M8.39232 13.6414L13.9736 8.06012L12.8652 6.95179L8.39232 11.4247L6.13607 9.16845L5.02773 10.2768L8.39232 13.6414ZM9.50065 17.9164C8.40551 17.9164 7.37635 17.7086 6.41315 17.2929C5.44996 16.8773 4.61211 16.3132 3.89961 15.6007C3.18711 14.8882 2.62305 14.0504 2.20742 13.0872C1.7918 12.124 1.58398 11.0948 1.58398 9.9997C1.58398 8.90457 1.7918 7.8754 2.20742 6.9122C2.62305 5.94901 3.18711 5.11116 3.89961 4.39866C4.61211 3.68616 5.44996 3.1221 6.41315 2.70648C7.37635 2.29085 8.40551 2.08304 9.50065 2.08304C10.5958 2.08304 11.625 2.29085 12.5882 2.70648C13.5513 3.1221 14.3892 3.68616 15.1017 4.39866C15.8142 5.11116 16.3783 5.94901 16.7939 6.9122C17.2095 7.8754 17.4173 8.90457 17.4173 9.9997C17.4173 11.0948 17.2095 12.124 16.7939 13.0872C16.3783 14.0504 15.8142 14.8882 15.1017 15.6007C14.3892 16.3132 13.5513 16.8773 12.5882 17.2929C11.625 17.7086 10.5958 17.9164 9.50065 17.9164Z" fill="#F09E2A"/>
</g>
</svg>
