<svg width="61" height="38" viewBox="0 0 61 38" fill="none" xmlns="http://www.w3.org/2000/svg">
<path d="M27.3368 25.0746H23.6953L25.973 12.02H29.6142L27.3368 25.0746Z" fill="#505050"/>
<path d="M40.5367 12.3395C39.8185 12.0753 38.6792 11.7837 37.2706 11.7837C33.6745 11.7837 31.1422 13.5612 31.1267 16.1026C31.0968 17.9776 32.9397 19.0191 34.3181 19.6443C35.727 20.2831 36.2059 20.7001 36.2059 21.2695C36.1915 22.1441 35.0674 22.5472 34.019 22.5472C32.5652 22.5472 31.7862 22.3394 30.6024 21.8528L30.1229 21.6442L29.6133 24.5747C30.4673 24.9354 32.0409 25.2555 33.6745 25.2695C37.4954 25.2695 39.9829 23.5194 40.0124 20.8112C40.027 19.3251 39.0538 18.1864 36.9558 17.2559C35.6821 16.6586 34.9022 16.2558 34.9022 15.6447C34.9171 15.0891 35.5619 14.52 36.9996 14.52C38.1834 14.4921 39.0532 14.7559 39.7121 15.0198L40.0415 15.1585L40.5367 12.3395Z" fill="#505050"/>
<path d="M45.3771 20.4498C45.677 19.6999 46.831 16.7973 46.831 16.7973C46.8158 16.8251 47.1303 16.0335 47.3101 15.5474L47.5646 16.6723C47.5646 16.6723 48.2542 19.7972 48.4039 20.4498C47.8348 20.4498 46.0964 20.4498 45.3771 20.4498ZM49.8721 12.02H47.0554C46.1868 12.02 45.5269 12.2559 45.1521 13.1032L39.7432 25.0744H43.5641C43.5641 25.0744 44.1931 23.4632 44.3283 23.1162C44.7475 23.1162 48.4644 23.1162 49.0037 23.1162C49.1082 23.5745 49.4382 25.0744 49.4382 25.0744H52.8098L49.8721 12.02Z" fill="#505050"/>
<path d="M20.6536 12.02L17.0874 20.922L16.6977 19.1166C16.0384 17.0334 13.9706 14.77 11.6631 13.6446L14.9296 25.0608H18.7804L24.5041 12.02H20.6536Z" fill="#505050"/>
<path d="M13.7752 12.02H7.91638L7.85645 12.2838C12.4267 13.3671 15.4534 15.9785 16.697 19.1171L15.4234 13.1174C15.2137 12.2836 14.5693 12.0475 13.7752 12.02Z" fill="#505050"/>
</svg>
