<svg width="61" height="38" viewBox="0 0 61 38" fill="none" xmlns="http://www.w3.org/2000/svg">
<path d="M35.5965 28.3168H25.0576V9.65967H35.5965V28.3168Z" fill="#505050"/>
<path d="M25.7332 18.986C25.7332 15.2013 27.5321 11.83 30.3335 9.65744C28.2849 8.06872 25.6995 7.12048 22.8897 7.12048C16.2378 7.12048 10.8457 12.4328 10.8457 18.986C10.8457 25.5393 16.2378 30.8516 22.8897 30.8516C25.6995 30.8516 28.2849 29.9033 30.3335 28.3146C27.5321 26.142 25.7332 22.7707 25.7332 18.986Z" fill="#505050"/>
<path d="M49.8118 18.986C49.8118 25.5393 44.4197 30.8516 37.7678 30.8516C34.958 30.8516 32.3726 29.9033 30.3232 28.3146C33.1254 26.142 34.9243 22.7707 34.9243 18.986C34.9243 15.2013 33.1254 11.83 30.3232 9.65744C32.3726 8.06872 34.958 7.12048 37.7678 7.12048C44.4197 7.12048 49.8118 12.4328 49.8118 18.986Z" fill="#505050"/>
<path d="M19.9084 19.0619C19.9084 18.5436 20.2532 18.1178 20.8166 18.1178C21.3549 18.1178 21.7184 18.5252 21.7184 19.0619C21.7184 19.5985 21.3549 20.0059 20.8166 20.0059C20.2532 20.0059 19.9084 19.5801 19.9084 19.0619ZM22.332 19.0619V17.5875H21.6811V17.9455C21.4746 17.68 21.1614 17.5134 20.7356 17.5134C19.8962 17.5134 19.2382 18.1616 19.2382 19.0619C19.2382 19.9629 19.8962 20.6104 20.7356 20.6104C21.1614 20.6104 21.4746 20.4437 21.6811 20.1782V20.5362H22.332V19.0619ZM44.3269 19.0619C44.3269 18.5436 44.6717 18.1178 45.2351 18.1178C45.7742 18.1178 46.1369 18.5252 46.1369 19.0619C46.1369 19.5985 45.7742 20.0059 45.2351 20.0059C44.6717 20.0059 44.3269 19.5801 44.3269 19.0619ZM46.7512 19.0619V16.4034H46.0996V17.9455C45.8932 17.68 45.5799 17.5134 45.1541 17.5134C44.3147 17.5134 43.6567 18.1616 43.6567 19.0619C43.6567 19.9629 44.3147 20.6104 45.1541 20.6104C45.5799 20.6104 45.8932 20.4437 46.0996 20.1782V20.5362H46.7512V19.0619ZM30.4113 18.0874C30.8306 18.0874 31.1001 18.3466 31.1689 18.8027H29.6156C29.6851 18.3769 29.9475 18.0874 30.4113 18.0874ZM30.4242 17.5134C29.5468 17.5134 28.9332 18.1425 28.9332 19.0619C28.9332 19.9996 29.5719 20.6104 30.4679 20.6104C30.9188 20.6104 31.3317 20.4995 31.6951 20.1973L31.3761 19.7221C31.1252 19.9191 30.8055 20.0306 30.5052 20.0306C30.0858 20.0306 29.7038 19.8393 29.6099 19.3083H31.8327C31.8392 19.2285 31.8456 19.148 31.8456 19.0619C31.8392 18.1425 31.2628 17.5134 30.4242 17.5134ZM38.2834 19.0619C38.2834 18.5436 38.6282 18.1178 39.1916 18.1178C39.73 18.1178 40.0934 18.5252 40.0934 19.0619C40.0934 19.5985 39.73 20.0059 39.1916 20.0059C38.6282 20.0059 38.2834 19.5801 38.2834 19.0619ZM40.707 19.0619V17.5875H40.0561V17.9455C39.8489 17.68 39.5364 17.5134 39.1106 17.5134C38.2712 17.5134 37.6132 18.1616 37.6132 19.0619C37.6132 19.9629 38.2712 20.6104 39.1106 20.6104C39.5364 20.6104 39.8489 20.4437 40.0561 20.1782V20.5362H40.707V19.0619ZM34.6075 19.0619C34.6075 19.9565 35.2398 20.6104 36.2046 20.6104C36.6555 20.6104 36.9558 20.5115 37.2813 20.2587L36.9688 19.7404C36.7243 19.9134 36.4677 20.0059 36.1853 20.0059C35.6656 19.9996 35.2835 19.6296 35.2835 19.0619C35.2835 18.4941 35.6656 18.1241 36.1853 18.1178C36.4677 18.1178 36.7243 18.2103 36.9688 18.3833L37.2813 17.865C36.9558 17.6122 36.6555 17.5134 36.2046 17.5134C35.2398 17.5134 34.6075 18.1672 34.6075 19.0619ZM42.9994 17.5134C42.6238 17.5134 42.3793 17.6864 42.2102 17.9455V17.5875H41.565V20.5362H42.2166V18.8832C42.2166 18.3953 42.4295 18.1241 42.8553 18.1241C42.9872 18.1241 43.1248 18.1425 43.2624 18.1983L43.4632 17.5939C43.3191 17.5381 43.1313 17.5134 42.9994 17.5134ZM25.5512 17.8219C25.238 17.6186 24.8064 17.5134 24.3305 17.5134C23.5721 17.5134 23.0839 17.8714 23.0839 18.4574C23.0839 18.9383 23.4473 19.2349 24.1168 19.3274L24.4244 19.3704C24.7813 19.4199 24.9498 19.5124 24.9498 19.679C24.9498 19.9071 24.7118 20.037 24.2674 20.037C23.8165 20.037 23.4911 19.8951 23.2717 19.7284L22.9649 20.2276C23.3219 20.4868 23.7728 20.6104 24.2609 20.6104C25.1254 20.6104 25.6265 20.2093 25.6265 19.6479C25.6265 19.1296 25.2322 18.8585 24.5806 18.766L24.2738 18.7222C23.9921 18.6855 23.7663 18.6304 23.7663 18.4327C23.7663 18.2166 23.9792 18.0874 24.3362 18.0874C24.7183 18.0874 25.0881 18.2294 25.2695 18.3402L25.5512 17.8219ZM33.9495 17.5134C33.5739 17.5134 33.3294 17.6864 33.161 17.9455V17.5875H32.5159V20.5362H33.1667V18.8832C33.1667 18.3953 33.3796 18.1241 33.8054 18.1241C33.9373 18.1241 34.0749 18.1425 34.2126 18.1983L34.4133 17.5939C34.2692 17.5381 34.0814 17.5134 33.9495 17.5134ZM28.3948 17.5875H27.3304V16.6929H26.6723V17.5875H26.0652V18.1736H26.6723V19.5187C26.6723 20.2029 26.9418 20.6104 27.7117 20.6104C27.9941 20.6104 28.3196 20.5242 28.526 20.3823L28.3382 19.8329C28.144 19.9438 27.9311 19.9996 27.7619 19.9996C27.4365 19.9996 27.3304 19.8019 27.3304 19.506V18.1736H28.3948V17.5875ZM18.6626 20.5362V18.6855C18.6626 17.9886 18.2117 17.5197 17.4848 17.5134C17.1027 17.507 16.7085 17.6242 16.4325 18.038C16.2261 17.7111 15.9006 17.5134 15.4433 17.5134C15.1236 17.5134 14.8111 17.6059 14.5666 17.9511V17.5875H13.915V20.5362H14.5724V18.9016C14.5724 18.3896 14.8605 18.1178 15.3057 18.1178C15.7379 18.1178 15.9565 18.3953 15.9565 18.8952V20.5362H16.6146V18.9016C16.6146 18.3896 16.9149 18.1178 17.3472 18.1178C17.7916 18.1178 18.0045 18.3953 18.0045 18.8952V20.5362H18.6626Z" fill="#262529"/>
</svg>
