<svg width="37" height="37" viewBox="0 0 37 37" fill="none" xmlns="http://www.w3.org/2000/svg">
<circle cx="18.5" cy="18.5" r="18.5" fill="white"/>
<g clip-path="url(#clip0_3004_2327)">
<path d="M22.9915 21.4364C22.4771 20.9286 21.8349 20.9286 21.3238 21.4364C20.9339 21.823 20.5441 22.2096 20.1607 22.6028C20.0559 22.7109 19.9674 22.7338 19.8396 22.6618C19.5874 22.5242 19.3187 22.4128 19.0763 22.262C17.9459 21.5511 16.9991 20.637 16.1603 19.6082C15.7442 19.0971 15.374 18.55 15.1152 17.934C15.0628 17.8095 15.0726 17.7276 15.1742 17.6261C15.564 17.2493 15.9441 16.8627 16.3274 16.4761C16.8615 15.9388 16.8615 15.3097 16.3242 14.7691C16.0195 14.4611 15.7148 14.1597 15.4101 13.8517C15.0955 13.5372 14.7843 13.2194 14.4665 12.9082C13.9521 12.4069 13.3099 12.4069 12.7988 12.9114C12.4057 13.298 12.0289 13.6945 11.6292 14.0745C11.259 14.4251 11.0722 14.8543 11.0329 15.3556C10.9706 16.1714 11.1705 16.9413 11.4523 17.6916C12.0289 19.2446 12.9069 20.6239 13.9718 21.8885C15.4101 23.5988 17.1268 24.9519 19.1352 25.9282C20.0395 26.3673 20.9765 26.7047 21.9955 26.7604C22.6966 26.7998 23.306 26.6228 23.7942 26.0757C24.1283 25.7022 24.5051 25.3614 24.859 25.0043C25.3832 24.4736 25.3865 23.8314 24.8655 23.3072C24.243 22.6814 23.6172 22.0589 22.9915 21.4364ZM22.3657 18.8252L23.5746 18.6188C23.3846 17.5081 22.8604 16.5023 22.0643 15.7029C21.2222 14.8608 20.1574 14.3301 18.9845 14.1663L18.8142 15.3818C19.7217 15.5096 20.5473 15.9191 21.1993 16.5711C21.8153 17.187 22.2183 17.9668 22.3657 18.8252ZM24.2561 13.57C22.8604 12.1743 21.0945 11.2929 19.1451 11.021L18.9747 12.2365C20.6587 12.4724 22.1855 13.2358 23.3912 14.4382C24.5346 15.5816 25.2849 17.0265 25.5568 18.6155L26.7658 18.4091C26.448 16.5678 25.5798 14.8969 24.2561 13.57Z" fill="#F09E2A"/>
</g>
<defs>
<clipPath id="clip0_3004_2327">
<rect width="15.7447" height="15.7447" fill="white" transform="translate(11.0215 11.021)"/>
</clipPath>
</defs>
</svg>
