<svg width="32" height="32" viewBox="0 0 32 32" fill="none" xmlns="http://www.w3.org/2000/svg">
<path d="M26.8568 24.9733L22.5328 20.6493C23.8512 18.9303 24.5647 16.8237 24.5621 14.6573C24.5621 12.0107 23.5314 9.52333 21.6601 7.65199C20.7424 6.729 19.6507 5.99725 18.4482 5.49912C17.2457 5.00098 15.9563 4.74636 14.6548 4.74999C12.0088 4.74999 9.52143 5.78066 7.64943 7.65199C3.78743 11.5147 3.78743 17.8 7.64943 21.6627C8.56714 22.5856 9.65885 23.3174 10.8613 23.8155C12.0638 24.3137 13.3532 24.5683 14.6548 24.5647C16.8508 24.5647 18.9314 23.8453 20.6474 22.5347L24.9714 26.8593C25.2314 27.1193 25.5728 27.25 25.9141 27.25C26.2554 27.25 26.5968 27.1193 26.8568 26.8593C26.9806 26.7355 27.0789 26.5885 27.1459 26.4267C27.213 26.2649 27.2475 26.0915 27.2475 25.9163C27.2475 25.7412 27.213 25.5678 27.1459 25.406C27.0789 25.2442 26.9806 25.0971 26.8568 24.9733ZM9.53543 19.7773C6.7121 16.954 6.71276 12.3607 9.53543 9.53733C10.2065 8.86329 11.0045 8.32889 11.8833 7.96502C12.7621 7.60114 13.7043 7.41499 14.6554 7.41733C15.6065 7.41508 16.5485 7.60127 17.4272 7.96514C18.3059 8.32902 19.1038 8.86337 19.7748 9.53733C20.4489 10.2084 20.9834 11.0063 21.3474 11.8851C21.7114 12.7639 21.8977 13.7061 21.8954 14.6573C21.8954 16.5913 21.1421 18.4093 19.7748 19.7773C18.4074 21.1453 16.5894 21.8973 14.6548 21.8973C12.7214 21.8973 10.9028 21.144 9.53476 19.7773H9.53543Z" fill="#454447"/>
</svg>
