<svg width="45" height="45" viewBox="0 0 45 45" fill="none" xmlns="http://www.w3.org/2000/svg">
<g clip-path="url(#clip0_3004_2316)">
<rect width="45" height="45" rx="22.5" fill="white"/>
<path fill-rule="evenodd" clip-rule="evenodd" d="M22.5 0C10.074 0 0 10.074 0 22.5C0 34.926 10.074 45 22.5 45C34.926 45 45 34.926 45 22.5C45 10.074 34.926 0 22.5 0ZM32.9291 15.3018C32.5907 18.8596 31.1256 27.4931 30.3803 31.478C30.0647 33.1646 29.4434 33.7298 28.8422 33.7852C27.5361 33.9056 26.5438 32.9212 25.2782 32.0915C23.298 30.7934 22.1792 29.9856 20.257 28.7191C18.0352 27.2549 19.4757 26.4507 20.7413 25.1358C21.0727 24.7913 26.8295 19.5548 26.9411 19.0802C26.9552 19.0204 26.9684 18.7989 26.8365 18.682C26.7047 18.5651 26.5105 18.6056 26.3707 18.6372C26.1721 18.682 23.008 20.773 16.8803 24.91C15.982 25.527 15.169 25.8267 14.4396 25.8117C13.6362 25.7941 12.0911 25.3573 10.9424 24.9838C9.5335 24.5259 8.41377 24.2833 8.51133 23.5055C8.56143 23.1003 9.11953 22.6863 10.1848 22.2627C16.744 19.4045 21.1175 17.521 23.306 16.6104C29.5549 14.0116 30.8531 13.5598 31.6994 13.5448C32.7596 13.5261 33.0154 14.4011 32.9291 15.3018Z" fill="#F09E2A"/>
</g>
<defs>
<clipPath id="clip0_3004_2316">
<rect width="45" height="45" fill="white"/>
</clipPath>
</defs>
</svg>
