<svg width="45" height="45" viewBox="0 0 45 45" fill="none" xmlns="http://www.w3.org/2000/svg">
<g clip-path="url(#clip0_3004_2311)">
<rect width="45" height="45" rx="22.5" fill="white"/>
<path d="M26.9403 23.7554C26.7929 23.6003 26.6079 23.486 26.4032 23.4238C26.1985 23.3616 25.9811 23.3535 25.7724 23.4003C25.5636 23.4471 25.3705 23.5473 25.212 23.691C25.0535 23.8347 24.9349 24.017 24.8679 24.2202C24.7621 24.507 24.5559 24.7457 24.2875 24.8921C24.0192 25.0385 23.7068 25.0828 23.4084 25.0166C22.0791 24.685 20.288 22.9442 19.9564 21.5676C19.8754 21.2682 19.913 20.949 20.0613 20.6766C20.2097 20.4042 20.4573 20.1995 20.7528 20.1051C20.9523 20.038 21.1313 19.921 21.2728 19.7652C21.4144 19.6094 21.5138 19.4201 21.5615 19.2151C21.6093 19.0101 21.6038 18.7963 21.5457 18.5941C21.4876 18.3918 21.3787 18.2077 21.2294 18.0593L19.3702 16.2001C19.126 15.9757 18.8064 15.8511 18.4747 15.8511C18.143 15.8511 17.8233 15.9757 17.5791 16.2001L16.3179 17.4672C15.0568 18.7936 16.4512 22.3107 19.5745 25.4311C22.6979 28.5515 26.2091 30.008 27.5354 28.6876L28.7966 27.4265C29.0169 27.1831 29.1389 26.8666 29.1389 26.5383C29.1389 26.21 29.0169 25.8935 28.7966 25.6501L26.9403 23.7554Z" fill="#F09E2A"/>
<path d="M22.5 0C18.0499 0 13.6998 1.3196 9.99968 3.79193C6.29957 6.26427 3.41569 9.77829 1.71272 13.8896C0.00974884 18.001 -0.435826 22.525 0.432341 26.8895C1.30051 31.2541 3.44343 35.2632 6.59011 38.4099C9.73679 41.5566 13.7459 43.6995 18.1105 44.5677C22.475 45.4358 26.999 44.9903 31.1104 43.2873C35.2217 41.5843 38.7357 38.7004 41.2081 35.0003C43.6804 31.3002 45 26.9501 45 22.5C45 16.5326 42.6295 10.8097 38.4099 6.5901C34.1903 2.37053 28.4674 0 22.5 0ZM22.5 34.3421C20.1835 34.3464 17.9174 33.6656 15.9869 32.3852L11.4365 33.8418L12.9168 29.4424C11.6381 27.6754 10.8722 25.5896 10.7037 23.4149C10.5352 21.2403 10.9706 19.0614 11.9618 17.1184C12.953 15.1755 14.4615 13.5441 16.3211 12.4041C18.1806 11.2641 20.3189 10.6598 22.5 10.6579C25.6407 10.6579 28.6528 11.9055 30.8736 14.1264C33.0945 16.3472 34.3421 19.3593 34.3421 22.5C34.3421 25.6407 33.0945 28.6528 30.8736 30.8736C28.6528 33.0945 25.6407 34.3421 22.5 34.3421Z" fill="#F09E2A"/>
</g>
<defs>
<clipPath id="clip0_3004_2311">
<rect width="45" height="45" fill="white"/>
</clipPath>
</defs>
</svg>
