<svg width="45" height="45" viewBox="0 0 45 45" fill="none" xmlns="http://www.w3.org/2000/svg">
<g clip-path="url(#clip0_3004_2306)">
<rect width="45" height="45" rx="22.5" fill="white"/>
<path d="M19.3799 26.1298L25.6207 22.5091L19.3799 18.8706V26.1298Z" fill="#F09E2A"/>
<path d="M22.5 0C18.0499 0 13.6998 1.3196 9.99968 3.79193C6.29957 6.26427 3.41569 9.77829 1.71272 13.8896C0.00974884 18.001 -0.435826 22.525 0.432341 26.8895C1.30051 31.2541 3.44343 35.2632 6.59011 38.4099C9.73679 41.5566 13.7459 43.6995 18.1105 44.5677C22.475 45.4358 26.999 44.9903 31.1104 43.2873C35.2217 41.5843 38.7357 38.7004 41.2081 35.0003C43.6804 31.3002 45 26.9501 45 22.5C45 16.5326 42.6295 10.8097 38.4099 6.5901C34.1903 2.37053 28.4674 0 22.5 0ZM34.3421 26.4819C34.3425 27.0704 34.2269 27.6532 34.002 28.197C33.7771 28.7408 33.4472 29.2349 33.0312 29.6511C32.6152 30.0674 32.1213 30.3976 31.5777 30.6229C31.034 30.8482 30.4513 30.9641 29.8628 30.9641H15.1372C14.5487 30.9641 13.966 30.8482 13.4224 30.6229C12.8787 30.3976 12.3848 30.0674 11.9688 29.6511C11.5528 29.2349 11.2229 28.7408 10.998 28.197C10.7731 27.6532 10.6575 27.0704 10.6579 26.4819V18.5181C10.6575 17.9296 10.7731 17.3468 10.998 16.803C11.2229 16.2592 11.5528 15.7651 11.9688 15.3489C12.3848 14.9326 12.8787 14.6024 13.4224 14.3771C13.966 14.1518 14.5487 14.0359 15.1372 14.0359H29.8628C30.4513 14.0359 31.034 14.1518 31.5777 14.3771C32.1213 14.6024 32.6152 14.9326 33.0312 15.3489C33.4472 15.7651 33.7771 16.2592 34.002 16.803C34.2269 17.3468 34.3425 17.9296 34.3421 18.5181V26.4819Z" fill="#F09E2A"/>
</g>
<defs>
<clipPath id="clip0_3004_2306">
<rect width="45" height="45" fill="white"/>
</clipPath>
</defs>
</svg>
